<svg xmlns="http://www.w3.org/2000/svg" width="1500" height="900" viewBox="0 0 1500 900">
  <style>.box{fill:#f8fafc;stroke:#0f172a;stroke-width:2;rx:10;ry:10}.t{font:14px Arial;fill:#0f172a}.h{font:700 20px Arial;fill:#0f172a}.l{stroke:#334155;stroke-width:2;marker-end:url(#a);fill:none}</style>
  <defs><marker id="a" markerWidth="10" markerHeight="10" refX="10" refY="5" orient="auto"><path d="M0,0 L10,5 L0,10 z" fill="#334155"/></marker></defs>
  <text class="h" x="40" y="40">Diagram 3 - Context Selection and Ranking Engine</text>

  <rect class="box" x="50" y="90" width="200" height="52"/><text class="t" x="95" y="122">Failing Tests</text>
  <rect class="box" x="50" y="152" width="200" height="52"/><text class="t" x="98" y="184">Execution Logs</text>
  <rect class="box" x="50" y="214" width="200" height="52"/><text class="t" x="96" y="246">Recent Changes</text>
  <rect class="box" x="50" y="276" width="200" height="52"/><text class="t" x="84" y="308">Architecture Profile</text>
  <rect class="box" x="50" y="338" width="200" height="52"/><text class="t" x="92" y="370">Project Contracts</text>
  <rect class="box" x="50" y="400" width="200" height="52"/><text class="t" x="86" y="432">External References</text>
  <rect class="box" x="50" y="462" width="200" height="52"/><text class="t" x="88" y="494">Requirement Lineage</text>

  <rect class="box" x="380" y="180" width="260" height="62"/><text class="t" x="448" y="217">Filtering</text>
  <rect class="box" x="380" y="258" width="260" height="62"/><text class="t" x="435" y="295">Relevance Scoring</text>
  <rect class="box" x="380" y="336" width="260" height="62"/><text class="t" x="445" y="373">Context Ranking</text>
  <rect class="box" x="380" y="414" width="260" height="62"/><text class="t" x="445" y="451">Compression</text>

  <rect class="box" x="760" y="260" width="280" height="120"/><text class="t" x="812" y="322">Bounded AI Context Pack</text>
  <text class="t" x="780" y="348">Top-k selected + decision trace</text>

  <line class="l" x1="250" y1="116" x2="380" y2="210"/>
  <line class="l" x1="250" y1="178" x2="380" y2="210"/>
  <line class="l" x1="250" y1="240" x2="380" y2="290"/>
  <line class="l" x1="250" y1="302" x2="380" y2="290"/>
  <line class="l" x1="250" y1="364" x2="380" y2="368"/>
  <line class="l" x1="250" y1="426" x2="380" y2="446"/>
  <line class="l" x1="250" y1="488" x2="380" y2="446"/>

  <line class="l" x1="640" y1="210" x2="760" y2="320"/>
  <line class="l" x1="640" y1="290" x2="760" y2="320"/>
  <line class="l" x1="640" y1="368" x2="760" y2="320"/>
  <line class="l" x1="640" y1="446" x2="760" y2="320"/>
</svg>
