<svg xmlns="http://www.w3.org/2000/svg" width="1600" height="980" viewBox="0 0 1600 980">
  <style>
    .box { fill:#f8fafc; stroke:#0f172a; stroke-width:2; rx:12; ry:12; }
    .title { font: 700 20px Arial; fill:#0f172a; }
    .text { font: 14px Arial; fill:#0f172a; }
    .line { stroke:#334155; stroke-width:2; marker-end:url(#arrow); fill:none; }
  </style>
  <defs><marker id="arrow" markerWidth="10" markerHeight="10" refX="10" refY="5" orient="auto"><path d="M0,0 L10,5 L0,10 z" fill="#334155"/></marker></defs>
  <text x="40" y="40" class="title">Diagram 1 - Overall System Architecture (Governed End-to-End Flow)</text>
  <rect class="box" x="60" y="90" width="180" height="70"/><text class="text" x="95" y="132">User Interface</text>
  <rect class="box" x="290" y="90" width="180" height="70"/><text class="text" x="336" y="132">API Layer</text>
  <rect class="box" x="520" y="90" width="240" height="70"/><text class="text" x="550" y="132">Scheduler / Orchestrator</text>

  <rect class="box" x="820" y="220" width="170" height="70"/><text class="text" x="860" y="262">Planner Agent</text>
  <rect class="box" x="1020" y="220" width="210" height="70"/><text class="text" x="1052" y="262">Code Generation Agent</text>
  <rect class="box" x="1260" y="220" width="150" height="70"/><text class="text" x="1296" y="262">Test Agent</text>
  <rect class="box" x="820" y="320" width="170" height="70"/><text class="text" x="860" y="362">Review Agent</text>

  <rect class="box" x="520" y="320" width="230" height="70"/><text class="text" x="548" y="362">Runtime Recovery Layer</text>

  <rect class="box" x="300" y="500" width="220" height="70"/><text class="text" x="340" y="542">Execution Workspace</text>
  <rect class="box" x="560" y="500" width="180" height="70"/><text class="text" x="598" y="542">Git Repository</text>
  <rect class="box" x="780" y="500" width="240" height="70"/><text class="text" x="810" y="542">Database / Metrics Store</text>
  <rect class="box" x="1060" y="500" width="240" height="70"/><text class="text" x="1088" y="542">Knowledge and Memory Layer</text>

  <line class="line" x1="240" y1="125" x2="290" y2="125"/>
  <line class="line" x1="470" y1="125" x2="520" y2="125"/>
  <line class="line" x1="760" y1="125" x2="860" y2="220"/>
  <line class="line" x1="760" y1="125" x2="1080" y2="220"/>
  <line class="line" x1="760" y1="125" x2="1330" y2="220"/>
  <line class="line" x1="760" y1="125" x2="860" y2="320"/>
  <line class="line" x1="640" y1="160" x2="635" y2="320"/>

  <line class="line" x1="900" y1="290" x2="640" y2="320"/>
  <line class="line" x1="1120" y1="290" x2="640" y2="320"/>
  <line class="line" x1="1330" y1="290" x2="640" y2="320"/>
  <line class="line" x1="900" y1="390" x2="640" y2="390"/>

  <line class="line" x1="635" y1="390" x2="410" y2="500"/>
  <line class="line" x1="635" y1="390" x2="650" y2="500"/>
  <line class="line" x1="635" y1="390" x2="900" y2="500"/>
  <line class="line" x1="635" y1="390" x2="1180" y2="500"/>

  <line class="line" x1="520" y1="535" x2="560" y2="535"/>
  <line class="line" x1="740" y1="535" x2="780" y2="535"/>
  <line class="line" x1="1020" y1="535" x2="1060" y2="535"/>
</svg>
